<?xml version="1.0" standalone="no"?><!DOCTYPE svg PUBLIC "-//W3C//DTD SVG 1.1//EN" "http://www.w3.org/Graphics/SVG/1.1/DTD/svg11.dtd"><svg t="1722844314527" class="icon" viewBox="0 0 1094 1024" version="1.1" xmlns="http://www.w3.org/2000/svg" p-id="4238" xmlns:xlink="http://www.w3.org/1999/xlink" width="273.5" height="256"><path d="M982.828138 787.597241l-160.979862-87.569655 1.094621-589.824 161.015172 87.569655z" fill="#B2ADFA" p-id="4239"></path><path d="M251.374345 890.385655l-161.015173-87.534345 731.524414-102.859034 160.944552 87.604965z" fill="#958EF8" p-id="4240"></path><path d="M611.36331 730.571034l-160.979862-87.569655 0.176552-96.820965 161.015172 87.569655z" fill="#B2ADFA" p-id="4241"></path><path d="M611.575172 633.750069l258.824828-36.369655-0.211862 96.750345-258.824828 36.369655z" fill="#7C73F6" p-id="4242"></path><path d="M611.575172 633.750069l-161.015172-87.569655 258.824828-36.369655 161.015172 87.569655z" fill="#958EF8" p-id="4243"></path><path d="M364.049655 677.075862l-161.015172-87.534345 99.222069-120.761379 160.979862 87.569655z" fill="#A09AF9" p-id="4244"></path><path d="M427.255172 736.573793l-160.979862-87.534345-63.205517-59.497931 160.944552 87.534345zM463.236414 556.314483l-161.015173-87.534345-98.727724-93.572414 160.944552 87.569655z" fill="#B4AFFA" p-id="4245"></path><path d="M364.438069 462.777379l-160.979862-87.534345L266.946207 297.595586l161.015172 87.604966z" fill="#A09AF9" p-id="4246"></path><path d="M982.828138 787.597241l1.094621-589.824L252.468966 300.561655l-1.059311 589.824 731.418483-102.753103zM1073.222621 87.569655l-0.918069 785.090207L161.015172 1000.765793 162.427586 215.569655 1073.18731 87.569655z" fill="#7C73F6" p-id="4247"></path><path d="M364.438069 462.777379l63.488-77.576827 162.321655 152.681931L427.255172 736.573793l-63.205517-59.497931 99.222069-120.761379z" fill="#7C73F6" p-id="4248"></path><path d="M162.427586 215.569655L1.412414 128 912.278069 0l160.944552 87.569655z" fill="#958EF8" p-id="4249"></path><path d="M160.979862 1000.765793l-161.015172-87.569655L1.483034 127.96469 162.427586 215.569655z" fill="#B2ADFA" p-id="4250"></path></svg>